<svg width="25" height="24" viewBox="0 0 25 24" fill="none" xmlns="http://www.w3.org/2000/svg">
<path d="M18.1719 8C18.1719 6.4087 17.5397 4.88258 16.4145 3.75736C15.2893 2.63214 13.7632 2 12.1719 2C10.5806 2 9.05445 2.63214 7.92923 3.75736C6.80402 4.88258 6.17188 6.4087 6.17188 8C6.17188 15 3.17188 17 3.17188 17H21.1719C21.1719 17 18.1719 15 18.1719 8Z" stroke="#000D21" stroke-width="1.5" stroke-linecap="round" stroke-linejoin="round"/>
<path d="M13.9014 21C13.7256 21.3031 13.4732 21.5547 13.1696 21.7295C12.866 21.9044 12.5218 21.9965 12.1714 21.9965C11.821 21.9965 11.4768 21.9044 11.1732 21.7295C10.8696 21.5547 10.6172 21.3031 10.4414 21" stroke="#000D21" stroke-width="1.5" stroke-linecap="round" stroke-linejoin="round"/>
</svg>
