<svg width="21" height="21" viewBox="0 0 21 21" fill="none" xmlns="http://www.w3.org/2000/svg">
<g clip-path="url(#clip0_1553_36558)">
<path d="M7.41705 12.6261C10.6515 12.6261 13.2736 10.004 13.2736 6.76959C13.2736 3.53513 10.6515 0.913086 7.41705 0.913086C4.18259 0.913086 1.56055 3.53513 1.56055 6.76959C1.56055 10.004 4.18259 12.6261 7.41705 12.6261Z" stroke="#8F959D" stroke-width="1.25496" stroke-linecap="round" stroke-linejoin="round"/>
<path d="M17.0393 8.39258C17.818 8.84128 18.483 9.46319 18.9828 10.2101C19.4826 10.9571 19.8038 11.8091 19.9215 12.7001C20.0391 13.591 19.9502 14.4972 19.6615 15.3483C19.3728 16.1994 18.8921 16.9726 18.2566 17.6081C17.6211 18.2436 16.8478 18.7243 15.9967 19.013C15.1456 19.3017 14.2395 19.3907 13.3485 19.273C12.4575 19.1553 11.6055 18.8342 10.8586 18.3344C10.1116 17.8346 9.48972 17.1696 9.04102 16.3909" stroke="#8F959D" stroke-width="1.25496" stroke-linecap="round" stroke-linejoin="round"/>
<path d="M6.58203 5.0957H7.41867V8.44228" stroke="#8F959D" stroke-width="1.25496" stroke-linecap="round" stroke-linejoin="round"/>
<path d="M15.1984 12.04L15.784 12.6257L13.4414 14.9683" stroke="#8F959D" stroke-width="1.25496" stroke-linecap="round" stroke-linejoin="round"/>
</g>
<defs>
<clipPath id="clip0_1553_36558">
<rect width="20.0794" height="20.0794" fill="white" transform="translate(0.724609 0.0761719)"/>
</clipPath>
</defs>
</svg>
