<svg width="18" height="17" viewBox="0 0 18 17" fill="none" xmlns="http://www.w3.org/2000/svg">
<path d="M0.227032 0.756523C0.326407 0.542773 0.540782 0.405273 0.777032 0.405273H16.9389C17.1752 0.405273 17.3895 0.542148 17.4889 0.756523C17.5883 0.970898 17.5545 1.22277 17.402 1.40277L11.0808 8.87777V15.5571C11.0808 15.7671 10.972 15.9621 10.7933 16.0728C10.6145 16.1834 10.3914 16.1934 10.2039 16.099L6.97141 14.4828C6.76578 14.3803 6.63641 14.1703 6.63641 13.9409V8.87777L0.315157 1.40277C0.162657 1.22277 0.128907 0.970273 0.228282 0.756523H0.227032ZM2.08328 1.61777L7.70453 8.26465C7.79703 8.37402 7.84766 8.51277 7.84766 8.6559V13.5665L9.86766 14.5765V8.6559C9.86766 8.51277 9.91828 8.37402 10.0108 8.26465L15.632 1.61777H2.08266H2.08328Z" fill="#8F959D"/>
</svg>
