<svg width="67" height="18" viewBox="0 0 67 18" fill="none" xmlns="http://www.w3.org/2000/svg">
<path d="M7.83762 12.8397C9.19043 12.8397 9.87663 12.3299 9.87663 11.2908V6.56579C9.87663 5.52668 9.19043 5.01692 7.83762 5.01692H4.83793C4.81832 5.01692 4.79872 4.99732 4.79872 4.97771V3.48767C4.79872 3.46806 4.81832 3.44846 4.83793 3.44846H5.7594C5.77901 3.44846 5.79862 3.46806 5.79862 3.48767V4.21309H9.87663V1.8996C9.87663 0.840881 9.19043 0.311523 7.83762 0.311523H2.75971C1.40691 0.311523 0.720703 0.840881 0.720703 1.8996V6.56579C0.720703 7.6245 1.40691 8.15386 2.75971 8.15386H5.7594C5.77901 8.15386 5.79862 8.17347 5.79862 8.19307V9.68311C5.79862 9.70272 5.77901 9.72233 5.7594 9.72233H4.83793C4.81832 9.72233 4.79872 9.70272 4.79872 9.68311V8.93809H0.720703V11.2908C0.720703 12.3299 1.40691 12.8397 2.75971 12.8397H7.83762Z" fill="white"/>
<path d="M18.5747 12.8397C19.9275 12.8397 20.6137 12.3299 20.6137 11.2908V5.01692H16.5553V9.68311C16.5553 9.70272 16.5357 9.72233 16.5161 9.72233H15.575C15.5554 9.72233 15.5358 9.70272 15.5358 9.68311V4.21309H20.6137V1.11536H15.5358V0.311523H11.4578V1.11536H10.4579V4.21309H11.4578V11.2908C11.4578 12.3299 12.144 12.8397 13.4968 12.8397H18.5747Z" fill="white"/>
<path d="M25.6883 12.8397V0.311523H21.6103V12.8397H25.6883Z" fill="white"/>
<path d="M33.7809 12.8397C35.1337 12.8397 35.8199 12.3299 35.8199 11.2908V6.76185H31.7419V9.68311C31.7419 9.70272 31.7223 9.72233 31.7027 9.72233H30.7812C30.7616 9.72233 30.742 9.70272 30.742 9.68311V3.48767C30.742 3.46806 30.7616 3.44846 30.7812 3.44846H31.7027C31.7223 3.44846 31.7419 3.46806 31.7419 3.48767V5.6051H35.8199V1.8996C35.8199 0.840881 35.1337 0.311523 33.7809 0.311523H28.703C27.3502 0.311523 26.664 0.840881 26.664 1.8996V11.2908C26.664 12.3299 27.3502 12.8397 28.703 12.8397H33.7809Z" fill="white"/>
<path d="M46.361 12.8397L43.4397 6.35012L46.2433 0.311523H41.9496L40.7341 3.50728V0.311523H36.7933V12.8397H40.7341V9.48706L42.0673 12.8397H46.361Z" fill="white"/>
<path d="M53.9237 12.8397C55.2765 12.8397 55.9627 12.3299 55.9627 11.2908V0.311523H51.8847V9.68311C51.8847 9.70272 51.865 9.72233 51.8454 9.72233H50.924C50.9044 9.72233 50.8848 9.70272 50.8848 9.68311V0.311523H46.8067V11.2908C46.8067 12.3299 47.4929 12.8397 48.8458 12.8397H53.9237Z" fill="#FFB800"/>
<path d="M46.8066 17.6888H54.6217C58.1408 17.6888 60.9936 14.836 60.9936 11.3169V9.40863H64.0325C65.4441 9.40863 66.0715 8.89888 66.0715 7.85977V1.8996C66.0715 0.840881 65.3853 0.311523 64.0325 0.311523H56.9155V11.7816C56.9155 12.9998 55.928 13.9873 54.7099 13.9873H46.8067L46.8066 17.6888ZM61.9935 6.25209C61.9935 6.2717 61.9739 6.2913 61.9543 6.2913H60.9936V3.44846H61.9543C61.9739 3.44846 61.9935 3.46806 61.9935 3.48767V6.25209Z" fill="#FFB800"/>
<path d="M36.834 13.9824H45.8744V17.6885H36.834V13.9824Z" fill="white"/>
</svg>
