<svg width="21" height="20" viewBox="0 0 21 20" fill="none" xmlns="http://www.w3.org/2000/svg">
<path d="M10.3666 3.93582C10.3666 3.93582 10.3666 3.93645 10.3666 3.93707C10.3666 3.9377 10.3666 3.9377 10.3666 3.93832C10.3666 3.93895 10.3672 3.93895 10.3672 3.93895L10.3678 3.93957C10.3678 3.93957 10.3684 3.93957 10.3691 3.93957C10.3697 3.93957 10.3697 3.93957 10.3703 3.93957C10.3709 3.93957 10.3709 3.93895 10.3709 3.93895C10.3716 3.93832 10.3716 3.93832 10.3716 3.93832C10.3716 3.93832 10.3716 3.9377 10.3716 3.93707C10.3716 3.93645 10.3716 3.93645 10.3716 3.93582C10.3716 3.9352 10.3709 3.9352 10.3709 3.9352L10.3703 3.93457C10.3703 3.93457 10.3697 3.93457 10.3691 3.93457C10.3684 3.93457 10.3684 3.93457 10.3678 3.93457C10.3672 3.93457 10.3672 3.9352 10.3672 3.9352L10.3666 3.93582ZM8.85156 3.93707C8.85156 3.09895 9.53094 2.41895 10.3691 2.41895C11.2072 2.41895 11.8872 3.09832 11.8872 3.93707C11.8872 4.77582 11.2078 5.4552 10.3691 5.4552C9.53094 5.4552 8.85156 4.77582 8.85156 3.93707V3.93707Z" fill="#000D21"/>
<path d="M10.3666 10.2995C10.3666 10.2995 10.3666 10.3001 10.3666 10.3007C10.3666 10.3013 10.3666 10.3013 10.3666 10.302C10.3666 10.3026 10.3672 10.3026 10.3672 10.3026L10.3678 10.3032C10.3678 10.3032 10.3684 10.3032 10.3691 10.3032C10.3697 10.3032 10.3697 10.3032 10.3703 10.3032L10.3709 10.3026L10.3716 10.302C10.3716 10.302 10.3716 10.3013 10.3716 10.3007C10.3716 10.3001 10.3716 10.3001 10.3716 10.2995C10.3716 10.2988 10.3709 10.2988 10.3709 10.2988L10.3703 10.2982C10.3703 10.2982 10.3697 10.2982 10.3691 10.2982C10.3684 10.2982 10.3684 10.2982 10.3678 10.2982C10.3672 10.2982 10.3672 10.2988 10.3672 10.2988L10.3666 10.2995ZM8.85156 10.3007C8.85156 9.46258 9.53094 8.7832 10.3691 8.7832C11.2072 8.7832 11.8872 9.46258 11.8872 10.3007C11.8872 11.1388 11.2078 11.8182 10.3691 11.8182C9.53094 11.8182 8.85156 11.1388 8.85156 10.3007V10.3007Z" fill="#000D21"/>
<path d="M10.3666 16.6627C10.3666 16.6627 10.3666 16.6634 10.3666 16.664C10.3666 16.6646 10.3666 16.6646 10.3666 16.6652C10.3666 16.6659 10.3672 16.6659 10.3672 16.6659L10.3678 16.6665C10.3678 16.6665 10.3684 16.6665 10.3691 16.6665C10.3697 16.6665 10.3697 16.6665 10.3703 16.6665L10.3709 16.6659L10.3716 16.6652C10.3716 16.6652 10.3716 16.6646 10.3716 16.664C10.3716 16.6634 10.3716 16.6634 10.3716 16.6627C10.3716 16.6621 10.3709 16.6621 10.3709 16.6621L10.3703 16.6615C10.3703 16.6615 10.3697 16.6615 10.3691 16.6615C10.3684 16.6615 10.3684 16.6615 10.3678 16.6615C10.3672 16.6615 10.3672 16.6621 10.3672 16.6621L10.3666 16.6627ZM8.85156 16.664C8.85156 15.8259 9.53094 15.1465 10.3691 15.1465C11.2072 15.1465 11.8872 15.8259 11.8872 16.664C11.8872 17.5021 11.2078 18.1815 10.3691 18.1815C9.53094 18.1815 8.85156 17.5021 8.85156 16.664V16.664Z" fill="#000D21"/>
</svg>
