<svg width="15" height="15" viewBox="0 0 15 15" fill="none" xmlns="http://www.w3.org/2000/svg">
<path d="M0 7.17168C0 6.83668 0.27125 6.56543 0.60625 6.56543H13.7375C14.0719 6.56543 14.3438 6.83668 14.3438 7.17168C14.3438 7.50668 14.0725 7.77793 13.7375 7.77793H0.60625C0.27125 7.77793 0 7.50668 0 7.17168V7.17168Z" fill="#8F959D"/>
<path d="M7.17266 14.3438C6.83766 14.3438 6.56641 14.0725 6.56641 13.7375V0.60625C6.56641 0.27125 6.83766 0 7.17266 0C7.50766 0 7.77891 0.27125 7.77891 0.60625V13.7375C7.77891 14.0725 7.50766 14.3438 7.17266 14.3438V14.3438Z" fill="#8F959D"/>
</svg>
