<svg width="33" height="27" viewBox="0 0 33 27" fill="none" xmlns="http://www.w3.org/2000/svg">
<path d="M16.0256 24.5369C20.9347 24.5369 24.9144 23.1042 24.9144 21.3369H7.13672C7.13672 23.1042 11.1164 24.5369 16.0256 24.5369Z" fill="#E4F9FA" fill-opacity="0.4"/>
<path d="M0.0253906 0.00390625L32.0252 0.00390625L24.8291 21.3371H7.22149L0.0253906 0.00390625Z" fill="url(#paint0_linear_1553_36991)"/>
<path d="M24.5588 21.6931C24.5588 21.9238 24.4125 22.2057 24.0014 22.5167C23.596 22.8234 22.987 23.1147 22.2026 23.3657C20.6377 23.8665 18.4538 24.1819 16.0256 24.1819C13.5974 24.1819 11.4134 23.8665 9.84856 23.3657C9.06411 23.1147 8.4551 22.8234 8.04977 22.5167C7.63866 22.2057 7.49227 21.9238 7.49227 21.6931C7.49227 21.4623 7.63866 21.1805 8.04977 20.8694C8.4551 20.5628 9.06411 20.2714 9.84856 20.0204C11.4134 19.5196 13.5974 19.2042 16.0256 19.2042C18.4538 19.2042 20.6377 19.5196 22.2026 20.0204C22.987 20.2714 23.596 20.5628 24.0014 20.8694C24.4125 21.1805 24.5588 21.4623 24.5588 21.6931Z" stroke="#E5FAFB" stroke-width="0.711107"/>
<g filter="url(#filter0_d_1553_36991)">
<path d="M19.5517 19.6084C19.5975 19.8677 19.399 20.1059 19.1358 20.1076L14.6402 20.1377C13.9243 20.1377 13.5079 19.3037 13.2638 18.6307L9.432 6.07004C9.23 5.47145 9.35925 5.33372 9.64512 5.21941C9.94562 5.09926 10.1743 5.76516 10.2829 6.07004L13.7554 17.2917C13.876 17.6306 14.1969 17.8569 14.5566 17.8569L19.1889 17.5526" fill="#A6AEB9"/>
<path d="M19.1889 17.5526L19.5517 19.6084C19.5975 19.8677 19.399 20.1059 19.1358 20.1076L14.6402 20.1377C13.9243 20.1377 13.5079 19.3037 13.2638 18.6307L9.432 6.07004C9.23 5.47145 9.35925 5.33372 9.64512 5.21941C9.94562 5.09926 10.1743 5.76516 10.2829 6.07004L13.7554 17.2917C13.876 17.6306 14.1969 17.8569 14.5566 17.8569L19.1889 17.5526Z" stroke="#A6AEB9" stroke-width="0.637922" stroke-linecap="round" stroke-linejoin="round"/>
<path d="M19.6132 19.7125L15.0645 19.7125C14.3486 19.7125 14.0341 19.1371 13.79 18.4641L9.79059 5.64476C9.68562 5.35533 9.5045 5.16209 9.79037 5.04779C10.0909 4.92763 10.431 5.08124 10.5396 5.38613L14.1797 16.8665C14.3003 17.2054 14.6212 17.4317 14.9809 17.4317L19.6132 17.1274" fill="white"/>
<path d="M19.6132 19.7125V17.1274L14.9809 17.4317C14.6212 17.4317 14.3003 17.2054 14.1797 16.8665L10.5396 5.38613C10.431 5.08124 10.0909 4.92763 9.79037 5.04779C9.5045 5.16209 9.68562 5.35533 9.79059 5.64476L13.79 18.4641C14.0341 19.1371 14.3486 19.7125 15.0645 19.7125L19.6132 19.7125Z" stroke="white" stroke-width="0.637922" stroke-linecap="round" stroke-linejoin="round"/>
<path d="M18.7639 19.7121L18.5763 17.127L15.3867 17.3396L15.491 19.7121L18.7639 19.7121Z" fill="#DD0000" stroke="#DD0000" stroke-width="0.637922"/>
</g>
<defs>
<filter id="filter0_d_1553_36991" x="4.76281" y="2.13581" width="19.4216" height="24.2752" filterUnits="userSpaceOnUse" color-interpolation-filters="sRGB">
<feFlood flood-opacity="0" result="BackgroundImageFix"/>
<feColorMatrix in="SourceAlpha" type="matrix" values="0 0 0 0 0 0 0 0 0 0 0 0 0 0 0 0 0 0 127 0" result="hardAlpha"/>
<feOffset dy="1.70112"/>
<feGaussianBlur stdDeviation="2.12641"/>
<feColorMatrix type="matrix" values="0 0 0 0 0 0 0 0 0 0 0 0 0 0 0 0 0 0 0.4 0"/>
<feBlend mode="normal" in2="BackgroundImageFix" result="effect1_dropShadow_1553_36991"/>
<feBlend mode="normal" in="SourceGraphic" in2="effect1_dropShadow_1553_36991" result="shape"/>
</filter>
<linearGradient id="paint0_linear_1553_36991" x1="16.0253" y1="0.00390625" x2="16.0253" y2="21.3371" gradientUnits="userSpaceOnUse">
<stop stop-color="#E5FAFB" stop-opacity="0"/>
<stop offset="1" stop-color="#E5FAFB" stop-opacity="0.4"/>
</linearGradient>
</defs>
</svg>
