<svg width="18" height="19" viewBox="0 0 18 19" fill="none" xmlns="http://www.w3.org/2000/svg">
<path d="M8.02567 3.91979C5.11361 3.91979 2.7528 6.2806 2.7528 9.19266C2.7528 12.1047 5.11361 14.4655 8.02567 14.4655C10.9377 14.4655 13.2985 12.1047 13.2985 9.19266C13.2985 6.2806 10.9377 3.91979 8.02567 3.91979ZM1.66211 9.19266C1.66211 5.67816 4.51117 2.8291 8.02567 2.8291C11.5402 2.8291 14.3892 5.67816 14.3892 9.19266C14.3892 12.7072 11.5402 15.5562 8.02567 15.5562C4.51117 15.5562 1.66211 12.7072 1.66211 9.19266Z" fill="white"/>
<path d="M11.7497 12.9158C11.9629 12.7026 12.3083 12.7026 12.5209 12.9158L15.6844 16.0793C15.8976 16.2924 15.8976 16.6378 15.6844 16.8504C15.4712 17.0631 15.1259 17.0636 14.9132 16.8504L11.7497 13.6869C11.5365 13.4738 11.5365 13.1284 11.7497 12.9158Z" fill="white"/>
</svg>
