<svg width="21" height="21" viewBox="0 0 21 21" fill="none" xmlns="http://www.w3.org/2000/svg">
<g clip-path="url(#clip0_1553_36568)">
<path d="M10.7638 13.1829C12.15 13.1829 13.2738 12.0592 13.2738 10.673C13.2738 9.28682 12.15 8.16309 10.7638 8.16309C9.37764 8.16309 8.25391 9.28682 8.25391 10.673C8.25391 12.0592 9.37764 13.1829 10.7638 13.1829Z" stroke="#8F959D" stroke-width="1.25496" stroke-linecap="round" stroke-linejoin="round"/>
<path d="M16.9548 13.1827C16.8434 13.4351 16.8102 13.715 16.8594 13.9864C16.9086 14.2578 17.038 14.5082 17.2309 14.7054L17.2811 14.7556C17.4367 14.911 17.5601 15.0956 17.6443 15.2987C17.7285 15.5018 17.7718 15.7196 17.7718 15.9395C17.7718 16.1594 17.7285 16.3771 17.6443 16.5802C17.5601 16.7834 17.4367 16.9679 17.2811 17.1233C17.1257 17.2789 16.9411 17.4023 16.738 17.4865C16.5349 17.5707 16.3171 17.6141 16.0972 17.6141C15.8773 17.6141 15.6596 17.5707 15.4565 17.4865C15.2533 17.4023 15.0688 17.2789 14.9134 17.1233L14.8632 17.0731C14.666 16.8802 14.4156 16.7509 14.1442 16.7017C13.8728 16.6524 13.5928 16.6857 13.3405 16.797C13.093 16.9031 12.882 17.0792 12.7333 17.3036C12.5847 17.5281 12.5049 17.7911 12.5038 18.0604V18.2026C12.5038 18.6464 12.3275 19.072 12.0137 19.3858C11.6999 19.6996 11.2743 19.8759 10.8306 19.8759C10.3868 19.8759 9.96116 19.6996 9.64736 19.3858C9.33356 19.072 9.15727 18.6464 9.15727 18.2026V18.1273C9.15079 17.8504 9.06115 17.5818 8.90001 17.3565C8.73886 17.1312 8.51367 16.9596 8.25369 16.864C8.00135 16.7526 7.72143 16.7194 7.45002 16.7686C7.17862 16.8178 6.92818 16.9472 6.731 17.1401L6.6808 17.1903C6.5254 17.3458 6.34086 17.4692 6.13772 17.5535C5.93459 17.6377 5.71685 17.681 5.49695 17.681C5.27706 17.681 5.05932 17.6377 4.85618 17.5535C4.65305 17.4692 4.46851 17.3458 4.3131 17.1903C4.15753 17.0349 4.03411 16.8503 3.9499 16.6472C3.86569 16.444 3.82235 16.2263 3.82235 16.0064C3.82235 15.7865 3.86569 15.5688 3.9499 15.3656C4.03411 15.1625 4.15753 14.978 4.3131 14.8226L4.3633 14.7724C4.55618 14.5752 4.68556 14.3247 4.73478 14.0533C4.78399 13.7819 4.75076 13.502 4.63939 13.2497C4.53334 13.0022 4.35724 12.7912 4.13278 12.6425C3.90831 12.4939 3.64528 12.4141 3.37606 12.413H3.23383C2.79005 12.413 2.36444 12.2367 2.05064 11.9229C1.73684 11.6091 1.56055 11.1835 1.56055 10.7397C1.56055 10.296 1.73684 9.87034 2.05064 9.55654C2.36444 9.24274 2.79005 9.06645 3.23383 9.06645H3.30913C3.58606 9.05997 3.85463 8.97033 4.07993 8.80919C4.30523 8.64804 4.47685 8.42285 4.57246 8.16287C4.68383 7.91053 4.71705 7.63061 4.66784 7.3592C4.61863 7.0878 4.48925 6.83736 4.29637 6.64018L4.24617 6.58998C4.0906 6.43458 3.96718 6.25004 3.88297 6.0469C3.79876 5.84377 3.75542 5.62603 3.75542 5.40613C3.75542 5.18624 3.79876 4.9685 3.88297 4.76536C3.96718 4.56223 4.0906 4.37769 4.24617 4.22228C4.40158 4.06671 4.58612 3.94329 4.78925 3.85908C4.99239 3.77487 5.21013 3.73153 5.43002 3.73153C5.64992 3.73153 5.86766 3.77487 6.07079 3.85908C6.27392 3.94329 6.45847 4.06671 6.61387 4.22228L6.66407 4.27248C6.86125 4.46536 7.11169 4.59474 7.38309 4.64395C7.65449 4.69317 7.93442 4.65994 8.18676 4.54857H8.25369C8.50115 4.44252 8.71219 4.26642 8.86084 4.04196C9.00949 3.81749 9.08926 3.55446 9.09034 3.28524V3.14301C9.09034 2.69923 9.26663 2.27362 9.58043 1.95982C9.89423 1.64602 10.3198 1.46973 10.7636 1.46973C11.2074 1.46973 11.633 1.64602 11.9468 1.95982C12.2606 2.27362 12.4369 2.69923 12.4369 3.14301V3.21831C12.438 3.48753 12.5178 3.75056 12.6664 3.97503C12.8151 4.19949 13.0261 4.37559 13.2736 4.48164C13.5259 4.59301 13.8058 4.62623 14.0772 4.57702C14.3486 4.52781 14.5991 4.39843 14.7962 4.20555L14.8464 4.15535C15.0018 3.99978 15.1864 3.87636 15.3895 3.79215C15.5927 3.70794 15.8104 3.6646 16.0303 3.6646C16.2502 3.6646 16.4679 3.70794 16.6711 3.79215C16.8742 3.87636 17.0587 3.99978 17.2141 4.15535C17.3697 4.31075 17.4931 4.4953 17.5773 4.69843C17.6616 4.90157 17.7049 5.11931 17.7049 5.3392C17.7049 5.5591 17.6616 5.77684 17.5773 5.97997C17.4931 6.1831 17.3697 6.36765 17.2141 6.52305L17.1639 6.57325C16.9711 6.77043 16.8417 7.02087 16.7925 7.29227C16.7433 7.56367 16.7765 7.8436 16.8879 8.09594V8.16287C16.9939 8.41033 17.17 8.62137 17.3945 8.77002C17.6189 8.91867 17.882 8.99844 18.1512 8.99952H18.2934C18.7372 8.99952 19.1628 9.17581 19.4766 9.48961C19.7904 9.80341 19.9667 10.229 19.9667 10.6728C19.9667 11.1166 19.7904 11.5422 19.4766 11.856C19.1628 12.1698 18.7372 12.3461 18.2934 12.3461H18.2181C17.9489 12.3472 17.6859 12.4269 17.4614 12.5756C17.2369 12.7242 17.0608 12.9353 16.9548 13.1827V13.1827Z" stroke="#8F959D" stroke-width="1.25496" stroke-linecap="round" stroke-linejoin="round"/>
</g>
<defs>
<clipPath id="clip0_1553_36568">
<rect width="20.0794" height="20.0794" fill="white" transform="translate(0.724609 0.632812)"/>
</clipPath>
</defs>
</svg>
