<svg width="21" height="21" viewBox="0 0 21 21" fill="none" xmlns="http://www.w3.org/2000/svg">
<g clip-path="url(#clip0_1553_36543)">
<path d="M14.9468 17.8656V16.1923C14.9468 15.3047 14.5943 14.4535 13.9667 13.8259C13.339 13.1983 12.4878 12.8457 11.6003 12.8457H4.90712C4.01955 12.8457 3.16834 13.1983 2.54074 13.8259C1.91313 14.4535 1.56055 15.3047 1.56055 16.1923V17.8656" stroke="#8F959D" stroke-width="1.25496" stroke-linecap="round" stroke-linejoin="round"/>
<path d="M8.25478 9.49881C10.103 9.49881 11.6013 8.0005 11.6013 6.15224C11.6013 4.30398 10.103 2.80566 8.25478 2.80566C6.40651 2.80566 4.9082 4.30398 4.9082 6.15224C4.9082 8.0005 6.40651 9.49881 8.25478 9.49881Z" stroke="#8F959D" stroke-width="1.25496" stroke-linecap="round" stroke-linejoin="round"/>
<path d="M19.967 17.8652V16.1919C19.9664 15.4504 19.7196 14.7301 19.2653 14.1441C18.811 13.558 18.175 13.1395 17.457 12.9541" stroke="#8F959D" stroke-width="1.25496" stroke-linecap="round" stroke-linejoin="round"/>
<path d="M14.1113 2.91406C14.8312 3.09838 15.4692 3.51703 15.9249 4.10403C16.3805 4.69103 16.6278 5.41297 16.6278 6.15606C16.6278 6.89914 16.3805 7.62108 15.9249 8.20808C15.4692 8.79508 14.8312 9.21373 14.1113 9.39805" stroke="#8F959D" stroke-width="1.25496" stroke-linecap="round" stroke-linejoin="round"/>
</g>
<defs>
<clipPath id="clip0_1553_36543">
<rect width="20.0794" height="20.0794" fill="white" transform="translate(0.724609 0.295898)"/>
</clipPath>
</defs>
</svg>
